<svg width="589" height="160" viewBox="0 0 589 160" fill="none" xmlns="http://www.w3.org/2000/svg">
<g opacity="0.26">
<path d="M221.014 0H60.6675C37.7609 0 8.40983 22.8571 31.3164 22.8571H122.943C203.116 22.8571 188.441 137.143 108.267 137.143H16.6409C-1.68443 137.143 -5.9679 160 9.3031 160H169.65C284.183 160 335.547 0 221.014 0Z" fill="#CD1515"/>
<path d="M552.265 0H357.824C334.949 0 305.598 22.8571 328.473 22.8571H442.85C477.163 22.8571 477.163 68.5714 442.85 68.5714H328.473C305.598 68.5714 298.26 91.4286 321.135 91.4286H458.388C492.701 91.4286 485.363 137.143 451.05 137.143H313.797C290.922 137.143 283.584 160 306.46 160H489.463C569.527 160 576.865 80 519.676 80C565.427 80 598.016 0 552.265 0Z" fill="#CD1515"/>
<path d="M235.69 0H75.3431C52.4365 0 23.0854 22.8571 45.992 22.8571H137.619C217.792 22.8571 203.116 137.143 122.943 137.143H31.3164C12.9911 137.143 8.70766 160 23.9787 160H184.325C298.858 160 350.223 0 235.69 0Z" fill="#008CFF"/>
<path d="M566.941 0H372.5C349.624 0 320.273 22.8571 343.149 22.8571H457.526C491.839 22.8571 491.839 68.5714 457.526 68.5714H343.149C320.273 68.5714 312.935 91.4286 335.811 91.4286H473.063C507.376 91.4286 500.039 137.143 465.726 137.143H328.473C305.598 137.143 298.26 160 321.135 160H504.139C584.202 160 591.54 80 534.352 80C580.103 80 612.691 0 566.941 0Z" fill="#008CFF"/>
<path d="M228.352 0H68.0053C45.0987 0 15.7476 22.8571 38.6542 22.8571H130.281C210.454 22.8571 195.778 137.143 115.605 137.143H23.9787C5.65335 137.143 1.36988 160 16.6409 160H176.987C291.52 160 342.885 0 228.352 0Z" fill="white"/>
<path d="M559.603 0H365.162C342.287 0 312.935 22.8571 335.811 22.8571H450.188C484.501 22.8571 484.501 68.5714 450.188 68.5714H335.811C312.935 68.5714 305.598 91.4286 328.473 91.4286H465.726C500.039 91.4286 492.701 137.143 458.388 137.143H321.135C298.26 137.143 290.922 160 313.797 160H496.801C576.865 160 584.202 80 527.014 80C572.765 80 605.354 0 559.603 0Z" fill="white"/>
</g>
</svg>
